<mxfile host="Electron" agent="Mozilla/5.0 (Windows NT 10.0; Win64; x64) AppleWebKit/537.36 (KHTML, like Gecko) draw.io/26.2.2 Chrome/134.0.6998.178 Electron/35.1.2 Safari/537.36" version="26.2.2">
  <diagram name="Page-1" id="v_4MF3RWXd26XCB0yrqc">
    <mxGraphModel dx="2320" dy="1604" grid="1" gridSize="10" guides="1" tooltips="1" connect="1" arrows="1" fold="1" page="1" pageScale="1" pageWidth="850" pageHeight="1100" math="0" shadow="0">
      <root>
        <mxCell id="0" />
        <mxCell id="1" parent="0" />
        <mxCell id="Xyg-lu1VKMeduts_Xm5k-85" value="API" style="verticalAlign=top;align=left;spacingTop=8;spacingLeft=2;spacingRight=12;shape=cube;size=10;direction=south;fontStyle=4;html=1;whiteSpace=wrap;fillColor=#d5e8d4;strokeColor=#82b366;" vertex="1" parent="1">
          <mxGeometry x="1280" y="239.92000000000002" width="390" height="340" as="geometry" />
        </mxCell>
        <mxCell id="Xyg-lu1VKMeduts_Xm5k-68" value="Application Services" style="verticalAlign=top;align=left;spacingTop=8;spacingLeft=2;spacingRight=12;shape=cube;size=10;direction=south;fontStyle=4;html=1;whiteSpace=wrap;" vertex="1" parent="1">
          <mxGeometry x="820" y="261.92" width="270" height="358" as="geometry" />
        </mxCell>
        <mxCell id="Xyg-lu1VKMeduts_Xm5k-45" value="Core Services" style="verticalAlign=top;align=left;spacingTop=8;spacingLeft=2;spacingRight=12;shape=cube;size=10;direction=south;fontStyle=4;html=1;whiteSpace=wrap;" vertex="1" parent="1">
          <mxGeometry x="440" y="259.92" width="260" height="620" as="geometry" />
        </mxCell>
        <mxCell id="Xyg-lu1VKMeduts_Xm5k-20" value="Core Data Structures" style="verticalAlign=top;align=left;spacingTop=8;spacingLeft=2;spacingRight=12;shape=cube;size=10;direction=south;fontStyle=4;html=1;whiteSpace=wrap;" vertex="1" parent="1">
          <mxGeometry x="40" y="261.92" width="270" height="480" as="geometry" />
        </mxCell>
        <mxCell id="Xyg-lu1VKMeduts_Xm5k-5" value="Session" style="swimlane;fontStyle=1;align=center;verticalAlign=top;childLayout=stackLayout;horizontal=1;startSize=26;horizontalStack=0;resizeParent=1;resizeParentMax=0;resizeLast=0;collapsible=1;marginBottom=0;whiteSpace=wrap;html=1;" vertex="1" parent="1">
          <mxGeometry x="90" y="321.92" width="160" height="156" as="geometry" />
        </mxCell>
        <mxCell id="Xyg-lu1VKMeduts_Xm5k-6" value="+ id" style="text;strokeColor=none;fillColor=none;align=left;verticalAlign=top;spacingLeft=4;spacingRight=4;overflow=hidden;rotatable=0;points=[[0,0.5],[1,0.5]];portConstraint=eastwest;whiteSpace=wrap;html=1;" vertex="1" parent="Xyg-lu1VKMeduts_Xm5k-5">
          <mxGeometry y="26" width="160" height="26" as="geometry" />
        </mxCell>
        <mxCell id="Xyg-lu1VKMeduts_Xm5k-8" value="+ csrf_token" style="text;strokeColor=none;fillColor=none;align=left;verticalAlign=top;spacingLeft=4;spacingRight=4;overflow=hidden;rotatable=0;points=[[0,0.5],[1,0.5]];portConstraint=eastwest;whiteSpace=wrap;html=1;" vertex="1" parent="Xyg-lu1VKMeduts_Xm5k-5">
          <mxGeometry y="52" width="160" height="26" as="geometry" />
        </mxCell>
        <mxCell id="Xyg-lu1VKMeduts_Xm5k-9" value="+ oauth_provider" style="text;strokeColor=none;fillColor=none;align=left;verticalAlign=top;spacingLeft=4;spacingRight=4;overflow=hidden;rotatable=0;points=[[0,0.5],[1,0.5]];portConstraint=eastwest;whiteSpace=wrap;html=1;" vertex="1" parent="Xyg-lu1VKMeduts_Xm5k-5">
          <mxGeometry y="78" width="160" height="26" as="geometry" />
        </mxCell>
        <mxCell id="Xyg-lu1VKMeduts_Xm5k-10" value="+ user_id" style="text;strokeColor=none;fillColor=none;align=left;verticalAlign=top;spacingLeft=4;spacingRight=4;overflow=hidden;rotatable=0;points=[[0,0.5],[1,0.5]];portConstraint=eastwest;whiteSpace=wrap;html=1;" vertex="1" parent="Xyg-lu1VKMeduts_Xm5k-5">
          <mxGeometry y="104" width="160" height="26" as="geometry" />
        </mxCell>
        <mxCell id="Xyg-lu1VKMeduts_Xm5k-11" value="+ user_email" style="text;strokeColor=none;fillColor=none;align=left;verticalAlign=top;spacingLeft=4;spacingRight=4;overflow=hidden;rotatable=0;points=[[0,0.5],[1,0.5]];portConstraint=eastwest;whiteSpace=wrap;html=1;" vertex="1" parent="Xyg-lu1VKMeduts_Xm5k-5">
          <mxGeometry y="130" width="160" height="26" as="geometry" />
        </mxCell>
        <mxCell id="Xyg-lu1VKMeduts_Xm5k-12" value="OauthData" style="swimlane;fontStyle=1;align=center;verticalAlign=top;childLayout=stackLayout;horizontal=1;startSize=26;horizontalStack=0;resizeParent=1;resizeParentMax=0;resizeLast=0;collapsible=1;marginBottom=0;whiteSpace=wrap;html=1;" vertex="1" parent="1">
          <mxGeometry x="90" y="501.92" width="160" height="208" as="geometry" />
        </mxCell>
        <mxCell id="Xyg-lu1VKMeduts_Xm5k-13" value="+ provider" style="text;strokeColor=none;fillColor=none;align=left;verticalAlign=top;spacingLeft=4;spacingRight=4;overflow=hidden;rotatable=0;points=[[0,0.5],[1,0.5]];portConstraint=eastwest;whiteSpace=wrap;html=1;" vertex="1" parent="Xyg-lu1VKMeduts_Xm5k-12">
          <mxGeometry y="26" width="160" height="26" as="geometry" />
        </mxCell>
        <mxCell id="Xyg-lu1VKMeduts_Xm5k-14" value="+ access_token" style="text;strokeColor=none;fillColor=none;align=left;verticalAlign=top;spacingLeft=4;spacingRight=4;overflow=hidden;rotatable=0;points=[[0,0.5],[1,0.5]];portConstraint=eastwest;whiteSpace=wrap;html=1;" vertex="1" parent="Xyg-lu1VKMeduts_Xm5k-12">
          <mxGeometry y="52" width="160" height="26" as="geometry" />
        </mxCell>
        <mxCell id="Xyg-lu1VKMeduts_Xm5k-15" value="+ refresh_token" style="text;strokeColor=none;fillColor=none;align=left;verticalAlign=top;spacingLeft=4;spacingRight=4;overflow=hidden;rotatable=0;points=[[0,0.5],[1,0.5]];portConstraint=eastwest;whiteSpace=wrap;html=1;" vertex="1" parent="Xyg-lu1VKMeduts_Xm5k-12">
          <mxGeometry y="78" width="160" height="26" as="geometry" />
        </mxCell>
        <mxCell id="Xyg-lu1VKMeduts_Xm5k-16" value="+ token_type" style="text;strokeColor=none;fillColor=none;align=left;verticalAlign=top;spacingLeft=4;spacingRight=4;overflow=hidden;rotatable=0;points=[[0,0.5],[1,0.5]];portConstraint=eastwest;whiteSpace=wrap;html=1;" vertex="1" parent="Xyg-lu1VKMeduts_Xm5k-12">
          <mxGeometry y="104" width="160" height="26" as="geometry" />
        </mxCell>
        <mxCell id="Xyg-lu1VKMeduts_Xm5k-17" value="+ id_token" style="text;strokeColor=none;fillColor=none;align=left;verticalAlign=top;spacingLeft=4;spacingRight=4;overflow=hidden;rotatable=0;points=[[0,0.5],[1,0.5]];portConstraint=eastwest;whiteSpace=wrap;html=1;" vertex="1" parent="Xyg-lu1VKMeduts_Xm5k-12">
          <mxGeometry y="130" width="160" height="26" as="geometry" />
        </mxCell>
        <mxCell id="Xyg-lu1VKMeduts_Xm5k-18" value="+ user_id" style="text;strokeColor=none;fillColor=none;align=left;verticalAlign=top;spacingLeft=4;spacingRight=4;overflow=hidden;rotatable=0;points=[[0,0.5],[1,0.5]];portConstraint=eastwest;whiteSpace=wrap;html=1;" vertex="1" parent="Xyg-lu1VKMeduts_Xm5k-12">
          <mxGeometry y="156" width="160" height="26" as="geometry" />
        </mxCell>
        <mxCell id="Xyg-lu1VKMeduts_Xm5k-19" value="+ user_email" style="text;strokeColor=none;fillColor=none;align=left;verticalAlign=top;spacingLeft=4;spacingRight=4;overflow=hidden;rotatable=0;points=[[0,0.5],[1,0.5]];portConstraint=eastwest;whiteSpace=wrap;html=1;" vertex="1" parent="Xyg-lu1VKMeduts_Xm5k-12">
          <mxGeometry y="182" width="160" height="26" as="geometry" />
        </mxCell>
        <mxCell id="Xyg-lu1VKMeduts_Xm5k-23" value="IAuthProcessor" style="swimlane;fontStyle=0;childLayout=stackLayout;horizontal=1;startSize=26;fillColor=none;horizontalStack=0;resizeParent=1;resizeParentMax=0;resizeLast=0;collapsible=1;marginBottom=0;whiteSpace=wrap;html=1;" vertex="1" parent="1">
          <mxGeometry x="480" y="515.92" width="170" height="52" as="geometry" />
        </mxCell>
        <mxCell id="Xyg-lu1VKMeduts_Xm5k-24" value="+ generate_url(...)" style="text;strokeColor=none;fillColor=none;align=left;verticalAlign=top;spacingLeft=4;spacingRight=4;overflow=hidden;rotatable=0;points=[[0,0.5],[1,0.5]];portConstraint=eastwest;whiteSpace=wrap;html=1;" vertex="1" parent="Xyg-lu1VKMeduts_Xm5k-23">
          <mxGeometry y="26" width="170" height="26" as="geometry" />
        </mxCell>
        <mxCell id="Xyg-lu1VKMeduts_Xm5k-43" style="edgeStyle=orthogonalEdgeStyle;rounded=0;orthogonalLoop=1;jettySize=auto;html=1;entryX=1;entryY=0.5;entryDx=0;entryDy=0;exitX=0;exitY=0.5;exitDx=0;exitDy=0;fillColor=#0050ef;strokeColor=#001DBC;" edge="1" parent="1" source="Xyg-lu1VKMeduts_Xm5k-28" target="Xyg-lu1VKMeduts_Xm5k-13">
          <mxGeometry relative="1" as="geometry">
            <Array as="points">
              <mxPoint x="480" y="629.92" />
              <mxPoint x="390" y="629.92" />
              <mxPoint x="390" y="541.92" />
              <mxPoint x="250" y="541.92" />
            </Array>
          </mxGeometry>
        </mxCell>
        <mxCell id="Xyg-lu1VKMeduts_Xm5k-27" value="ICodeProcessor" style="swimlane;fontStyle=0;childLayout=stackLayout;horizontal=1;startSize=26;fillColor=none;horizontalStack=0;resizeParent=1;resizeParentMax=0;resizeLast=0;collapsible=1;marginBottom=0;whiteSpace=wrap;html=1;" vertex="1" parent="1">
          <mxGeometry x="480" y="589.92" width="170" height="52" as="geometry" />
        </mxCell>
        <mxCell id="Xyg-lu1VKMeduts_Xm5k-28" value="+ get_oauth_data(...)" style="text;strokeColor=none;fillColor=none;align=left;verticalAlign=top;spacingLeft=4;spacingRight=4;overflow=hidden;rotatable=0;points=[[0,0.5],[1,0.5]];portConstraint=eastwest;whiteSpace=wrap;html=1;" vertex="1" parent="Xyg-lu1VKMeduts_Xm5k-27">
          <mxGeometry y="26" width="170" height="26" as="geometry" />
        </mxCell>
        <mxCell id="Xyg-lu1VKMeduts_Xm5k-29" value="ICsrfTokenValidator" style="swimlane;fontStyle=0;childLayout=stackLayout;horizontal=1;startSize=26;fillColor=none;horizontalStack=0;resizeParent=1;resizeParentMax=0;resizeLast=0;collapsible=1;marginBottom=0;whiteSpace=wrap;html=1;" vertex="1" parent="1">
          <mxGeometry x="480" y="809.92" width="170" height="52" as="geometry" />
        </mxCell>
        <mxCell id="Xyg-lu1VKMeduts_Xm5k-30" value="+ validate(...)" style="text;strokeColor=none;fillColor=none;align=left;verticalAlign=top;spacingLeft=4;spacingRight=4;overflow=hidden;rotatable=0;points=[[0,0.5],[1,0.5]];portConstraint=eastwest;whiteSpace=wrap;html=1;" vertex="1" parent="Xyg-lu1VKMeduts_Xm5k-29">
          <mxGeometry y="26" width="170" height="26" as="geometry" />
        </mxCell>
        <mxCell id="Xyg-lu1VKMeduts_Xm5k-31" value="ISessionRepository" style="swimlane;fontStyle=0;childLayout=stackLayout;horizontal=1;startSize=26;fillColor=none;horizontalStack=0;resizeParent=1;resizeParentMax=0;resizeLast=0;collapsible=1;marginBottom=0;whiteSpace=wrap;html=1;" vertex="1" parent="1">
          <mxGeometry x="480" y="391.92" width="170" height="104" as="geometry" />
        </mxCell>
        <mxCell id="Xyg-lu1VKMeduts_Xm5k-32" value="+ get_session(...)" style="text;strokeColor=none;fillColor=none;align=left;verticalAlign=top;spacingLeft=4;spacingRight=4;overflow=hidden;rotatable=0;points=[[0,0.5],[1,0.5]];portConstraint=eastwest;whiteSpace=wrap;html=1;" vertex="1" parent="Xyg-lu1VKMeduts_Xm5k-31">
          <mxGeometry y="26" width="170" height="26" as="geometry" />
        </mxCell>
        <mxCell id="Xyg-lu1VKMeduts_Xm5k-34" value="+ set_session(...)" style="text;strokeColor=none;fillColor=none;align=left;verticalAlign=top;spacingLeft=4;spacingRight=4;overflow=hidden;rotatable=0;points=[[0,0.5],[1,0.5]];portConstraint=eastwest;whiteSpace=wrap;html=1;" vertex="1" parent="Xyg-lu1VKMeduts_Xm5k-31">
          <mxGeometry y="52" width="170" height="26" as="geometry" />
        </mxCell>
        <mxCell id="Xyg-lu1VKMeduts_Xm5k-33" value="+ delete_session(...)" style="text;strokeColor=none;fillColor=none;align=left;verticalAlign=top;spacingLeft=4;spacingRight=4;overflow=hidden;rotatable=0;points=[[0,0.5],[1,0.5]];portConstraint=eastwest;whiteSpace=wrap;html=1;" vertex="1" parent="Xyg-lu1VKMeduts_Xm5k-31">
          <mxGeometry y="78" width="170" height="26" as="geometry" />
        </mxCell>
        <mxCell id="Xyg-lu1VKMeduts_Xm5k-42" style="edgeStyle=orthogonalEdgeStyle;rounded=0;orthogonalLoop=1;jettySize=auto;html=1;entryX=1;entryY=0.5;entryDx=0;entryDy=0;exitX=0;exitY=0.5;exitDx=0;exitDy=0;fillColor=#0050ef;strokeColor=#001DBC;" edge="1" parent="1" source="Xyg-lu1VKMeduts_Xm5k-36" target="Xyg-lu1VKMeduts_Xm5k-14">
          <mxGeometry relative="1" as="geometry">
            <Array as="points">
              <mxPoint x="370" y="700.92" />
              <mxPoint x="370" y="566.92" />
            </Array>
          </mxGeometry>
        </mxCell>
        <mxCell id="Xyg-lu1VKMeduts_Xm5k-35" value="IOauthDataRepository" style="swimlane;fontStyle=0;childLayout=stackLayout;horizontal=1;startSize=26;fillColor=none;horizontalStack=0;resizeParent=1;resizeParentMax=0;resizeLast=0;collapsible=1;marginBottom=0;whiteSpace=wrap;html=1;" vertex="1" parent="1">
          <mxGeometry x="480" y="661.92" width="170" height="104" as="geometry" />
        </mxCell>
        <mxCell id="Xyg-lu1VKMeduts_Xm5k-36" value="+ get_oauth_data(...)" style="text;strokeColor=none;fillColor=none;align=left;verticalAlign=top;spacingLeft=4;spacingRight=4;overflow=hidden;rotatable=0;points=[[0,0.5],[1,0.5]];portConstraint=eastwest;whiteSpace=wrap;html=1;" vertex="1" parent="Xyg-lu1VKMeduts_Xm5k-35">
          <mxGeometry y="26" width="170" height="26" as="geometry" />
        </mxCell>
        <mxCell id="Xyg-lu1VKMeduts_Xm5k-37" value="+ set_oauth_data(...)" style="text;strokeColor=none;fillColor=none;align=left;verticalAlign=top;spacingLeft=4;spacingRight=4;overflow=hidden;rotatable=0;points=[[0,0.5],[1,0.5]];portConstraint=eastwest;whiteSpace=wrap;html=1;" vertex="1" parent="Xyg-lu1VKMeduts_Xm5k-35">
          <mxGeometry y="52" width="170" height="26" as="geometry" />
        </mxCell>
        <mxCell id="Xyg-lu1VKMeduts_Xm5k-38" value="+ delete_oauth_data(...)" style="text;strokeColor=none;fillColor=none;align=left;verticalAlign=top;spacingLeft=4;spacingRight=4;overflow=hidden;rotatable=0;points=[[0,0.5],[1,0.5]];portConstraint=eastwest;whiteSpace=wrap;html=1;" vertex="1" parent="Xyg-lu1VKMeduts_Xm5k-35">
          <mxGeometry y="78" width="170" height="26" as="geometry" />
        </mxCell>
        <mxCell id="Xyg-lu1VKMeduts_Xm5k-44" style="edgeStyle=orthogonalEdgeStyle;rounded=0;orthogonalLoop=1;jettySize=auto;html=1;entryX=1;entryY=0.5;entryDx=0;entryDy=0;exitX=0;exitY=0.25;exitDx=0;exitDy=0;fillColor=#0050ef;strokeColor=#001DBC;" edge="1" parent="1" source="Xyg-lu1VKMeduts_Xm5k-39" target="Xyg-lu1VKMeduts_Xm5k-6">
          <mxGeometry relative="1" as="geometry">
            <Array as="points">
              <mxPoint x="480" y="331.92" />
              <mxPoint x="370" y="331.92" />
              <mxPoint x="370" y="360.92" />
            </Array>
          </mxGeometry>
        </mxCell>
        <mxCell id="Xyg-lu1VKMeduts_Xm5k-39" value="ISessionMaker" style="swimlane;fontStyle=0;childLayout=stackLayout;horizontal=1;startSize=26;fillColor=none;horizontalStack=0;resizeParent=1;resizeParentMax=0;resizeLast=0;collapsible=1;marginBottom=0;whiteSpace=wrap;html=1;" vertex="1" parent="1">
          <mxGeometry x="480" y="321.92" width="170" height="52" as="geometry" />
        </mxCell>
        <mxCell id="Xyg-lu1VKMeduts_Xm5k-40" value="+ create_session(...)" style="text;strokeColor=none;fillColor=none;align=left;verticalAlign=top;spacingLeft=4;spacingRight=4;overflow=hidden;rotatable=0;points=[[0,0.5],[1,0.5]];portConstraint=eastwest;whiteSpace=wrap;html=1;" vertex="1" parent="Xyg-lu1VKMeduts_Xm5k-39">
          <mxGeometry y="26" width="170" height="26" as="geometry" />
        </mxCell>
        <mxCell id="Xyg-lu1VKMeduts_Xm5k-41" style="edgeStyle=orthogonalEdgeStyle;rounded=0;orthogonalLoop=1;jettySize=auto;html=1;entryX=1;entryY=0.5;entryDx=0;entryDy=0;exitX=0;exitY=0.5;exitDx=0;exitDy=0;fillColor=#0050ef;strokeColor=#001DBC;" edge="1" parent="1" source="Xyg-lu1VKMeduts_Xm5k-32" target="Xyg-lu1VKMeduts_Xm5k-8">
          <mxGeometry relative="1" as="geometry">
            <Array as="points">
              <mxPoint x="480" y="426.92" />
              <mxPoint x="370" y="426.92" />
              <mxPoint x="370" y="386.92" />
            </Array>
          </mxGeometry>
        </mxCell>
        <mxCell id="Xyg-lu1VKMeduts_Xm5k-60" style="edgeStyle=orthogonalEdgeStyle;rounded=0;orthogonalLoop=1;jettySize=auto;html=1;entryX=1;entryY=0.5;entryDx=0;entryDy=0;exitX=0;exitY=0.5;exitDx=0;exitDy=0;fillColor=#60a917;strokeColor=#2D7600;" edge="1" parent="1" source="Xyg-lu1VKMeduts_Xm5k-48" target="Xyg-lu1VKMeduts_Xm5k-23">
          <mxGeometry relative="1" as="geometry">
            <Array as="points">
              <mxPoint x="740" y="526.92" />
              <mxPoint x="740" y="541.92" />
            </Array>
          </mxGeometry>
        </mxCell>
        <mxCell id="Xyg-lu1VKMeduts_Xm5k-46" value="IOauthService" style="swimlane;fontStyle=0;childLayout=stackLayout;horizontal=1;startSize=26;fillColor=none;horizontalStack=0;resizeParent=1;resizeParentMax=0;resizeLast=0;collapsible=1;marginBottom=0;whiteSpace=wrap;html=1;" vertex="1" parent="1">
          <mxGeometry x="860" y="461.92" width="180" height="130" as="geometry" />
        </mxCell>
        <mxCell id="Xyg-lu1VKMeduts_Xm5k-47" value="+ get_auth_url(...)" style="text;strokeColor=none;fillColor=none;align=left;verticalAlign=top;spacingLeft=4;spacingRight=4;overflow=hidden;rotatable=0;points=[[0,0.5],[1,0.5]];portConstraint=eastwest;whiteSpace=wrap;html=1;" vertex="1" parent="Xyg-lu1VKMeduts_Xm5k-46">
          <mxGeometry y="26" width="180" height="26" as="geometry" />
        </mxCell>
        <mxCell id="Xyg-lu1VKMeduts_Xm5k-48" value="+ process_auth_response(...)" style="text;strokeColor=none;fillColor=none;align=left;verticalAlign=top;spacingLeft=4;spacingRight=4;overflow=hidden;rotatable=0;points=[[0,0.5],[1,0.5]];portConstraint=eastwest;whiteSpace=wrap;html=1;" vertex="1" parent="Xyg-lu1VKMeduts_Xm5k-46">
          <mxGeometry y="52" width="180" height="26" as="geometry" />
        </mxCell>
        <mxCell id="Xyg-lu1VKMeduts_Xm5k-54" value="+ auth_processor_factory(...)" style="text;strokeColor=none;fillColor=none;align=left;verticalAlign=top;spacingLeft=4;spacingRight=4;overflow=hidden;rotatable=0;points=[[0,0.5],[1,0.5]];portConstraint=eastwest;whiteSpace=wrap;html=1;" vertex="1" parent="Xyg-lu1VKMeduts_Xm5k-46">
          <mxGeometry y="78" width="180" height="26" as="geometry" />
        </mxCell>
        <mxCell id="Xyg-lu1VKMeduts_Xm5k-49" value="+ code_processor_factory(...)" style="text;strokeColor=none;fillColor=none;align=left;verticalAlign=top;spacingLeft=4;spacingRight=4;overflow=hidden;rotatable=0;points=[[0,0.5],[1,0.5]];portConstraint=eastwest;whiteSpace=wrap;html=1;" vertex="1" parent="Xyg-lu1VKMeduts_Xm5k-46">
          <mxGeometry y="104" width="180" height="26" as="geometry" />
        </mxCell>
        <mxCell id="Xyg-lu1VKMeduts_Xm5k-66" style="edgeStyle=orthogonalEdgeStyle;rounded=0;orthogonalLoop=1;jettySize=auto;html=1;entryX=1;entryY=0.5;entryDx=0;entryDy=0;exitX=1;exitY=0.5;exitDx=0;exitDy=0;fillColor=#60a917;strokeColor=#2D7600;" edge="1" parent="1" source="Xyg-lu1VKMeduts_Xm5k-57" target="Xyg-lu1VKMeduts_Xm5k-38">
          <mxGeometry relative="1" as="geometry">
            <Array as="points">
              <mxPoint x="1060" y="386.92" />
              <mxPoint x="1060" y="752.92" />
            </Array>
          </mxGeometry>
        </mxCell>
        <mxCell id="Xyg-lu1VKMeduts_Xm5k-88" style="edgeStyle=orthogonalEdgeStyle;rounded=0;orthogonalLoop=1;jettySize=auto;html=1;entryX=0.75;entryY=0;entryDx=0;entryDy=0;exitX=0.25;exitY=0;exitDx=0;exitDy=0;fillColor=#60a917;strokeColor=#2D7600;" edge="1" parent="1" source="Xyg-lu1VKMeduts_Xm5k-55" target="Xyg-lu1VKMeduts_Xm5k-5">
          <mxGeometry relative="1" as="geometry">
            <Array as="points">
              <mxPoint x="905" y="219.92000000000002" />
              <mxPoint x="210" y="219.92000000000002" />
            </Array>
          </mxGeometry>
        </mxCell>
        <mxCell id="Xyg-lu1VKMeduts_Xm5k-55" value="ISessionService" style="swimlane;fontStyle=0;childLayout=stackLayout;horizontal=1;startSize=26;fillColor=none;horizontalStack=0;resizeParent=1;resizeParentMax=0;resizeLast=0;collapsible=1;marginBottom=0;whiteSpace=wrap;html=1;" vertex="1" parent="1">
          <mxGeometry x="860" y="321.92" width="180" height="78" as="geometry" />
        </mxCell>
        <mxCell id="Xyg-lu1VKMeduts_Xm5k-56" value="+ get_session(...)" style="text;strokeColor=none;fillColor=none;align=left;verticalAlign=top;spacingLeft=4;spacingRight=4;overflow=hidden;rotatable=0;points=[[0,0.5],[1,0.5]];portConstraint=eastwest;whiteSpace=wrap;html=1;" vertex="1" parent="Xyg-lu1VKMeduts_Xm5k-55">
          <mxGeometry y="26" width="180" height="26" as="geometry" />
        </mxCell>
        <mxCell id="Xyg-lu1VKMeduts_Xm5k-57" value="+ drop_session(...)" style="text;strokeColor=none;fillColor=none;align=left;verticalAlign=top;spacingLeft=4;spacingRight=4;overflow=hidden;rotatable=0;points=[[0,0.5],[1,0.5]];portConstraint=eastwest;whiteSpace=wrap;html=1;" vertex="1" parent="Xyg-lu1VKMeduts_Xm5k-55">
          <mxGeometry y="52" width="180" height="26" as="geometry" />
        </mxCell>
        <mxCell id="Xyg-lu1VKMeduts_Xm5k-61" style="edgeStyle=orthogonalEdgeStyle;rounded=0;orthogonalLoop=1;jettySize=auto;html=1;entryX=1;entryY=0.25;entryDx=0;entryDy=0;exitX=0;exitY=0.5;exitDx=0;exitDy=0;fillColor=#60a917;strokeColor=#2D7600;" edge="1" parent="1" source="Xyg-lu1VKMeduts_Xm5k-54" target="Xyg-lu1VKMeduts_Xm5k-27">
          <mxGeometry relative="1" as="geometry">
            <Array as="points">
              <mxPoint x="740" y="552.92" />
              <mxPoint x="740" y="602.92" />
            </Array>
          </mxGeometry>
        </mxCell>
        <mxCell id="Xyg-lu1VKMeduts_Xm5k-62" style="edgeStyle=orthogonalEdgeStyle;rounded=0;orthogonalLoop=1;jettySize=auto;html=1;entryX=1;entryY=0.5;entryDx=0;entryDy=0;exitX=0;exitY=0.25;exitDx=0;exitDy=0;fillColor=#60a917;strokeColor=#2D7600;" edge="1" parent="1" source="Xyg-lu1VKMeduts_Xm5k-46" target="Xyg-lu1VKMeduts_Xm5k-34">
          <mxGeometry relative="1" as="geometry">
            <Array as="points">
              <mxPoint x="740" y="493.92" />
              <mxPoint x="740" y="456.92" />
            </Array>
          </mxGeometry>
        </mxCell>
        <mxCell id="Xyg-lu1VKMeduts_Xm5k-63" style="edgeStyle=orthogonalEdgeStyle;rounded=0;orthogonalLoop=1;jettySize=auto;html=1;entryX=1;entryY=0.25;entryDx=0;entryDy=0;fillColor=#60a917;strokeColor=#2D7600;" edge="1" parent="1" source="Xyg-lu1VKMeduts_Xm5k-56" target="Xyg-lu1VKMeduts_Xm5k-31">
          <mxGeometry relative="1" as="geometry">
            <Array as="points">
              <mxPoint x="760" y="360.92" />
              <mxPoint x="760" y="417.92" />
            </Array>
          </mxGeometry>
        </mxCell>
        <mxCell id="Xyg-lu1VKMeduts_Xm5k-64" style="edgeStyle=orthogonalEdgeStyle;rounded=0;orthogonalLoop=1;jettySize=auto;html=1;entryX=1;entryY=0.5;entryDx=0;entryDy=0;exitX=0;exitY=0.25;exitDx=0;exitDy=0;fillColor=#60a917;strokeColor=#2D7600;" edge="1" parent="1" source="Xyg-lu1VKMeduts_Xm5k-55" target="Xyg-lu1VKMeduts_Xm5k-40">
          <mxGeometry relative="1" as="geometry">
            <Array as="points">
              <mxPoint x="740" y="341.92" />
              <mxPoint x="740" y="360.92" />
            </Array>
          </mxGeometry>
        </mxCell>
        <mxCell id="Xyg-lu1VKMeduts_Xm5k-67" style="edgeStyle=orthogonalEdgeStyle;rounded=0;orthogonalLoop=1;jettySize=auto;html=1;entryX=1;entryY=0.5;entryDx=0;entryDy=0;exitX=0;exitY=0.5;exitDx=0;exitDy=0;fillColor=#60a917;strokeColor=#2D7600;" edge="1" parent="1" source="Xyg-lu1VKMeduts_Xm5k-49" target="Xyg-lu1VKMeduts_Xm5k-36">
          <mxGeometry relative="1" as="geometry">
            <Array as="points">
              <mxPoint x="760" y="578.92" />
              <mxPoint x="760" y="700.92" />
            </Array>
          </mxGeometry>
        </mxCell>
        <mxCell id="Xyg-lu1VKMeduts_Xm5k-77" style="edgeStyle=orthogonalEdgeStyle;rounded=0;orthogonalLoop=1;jettySize=auto;html=1;entryX=0;entryY=0.5;entryDx=0;entryDy=0;" edge="1" parent="1" source="Xyg-lu1VKMeduts_Xm5k-69" target="Xyg-lu1VKMeduts_Xm5k-71">
          <mxGeometry relative="1" as="geometry" />
        </mxCell>
        <mxCell id="Xyg-lu1VKMeduts_Xm5k-78" style="edgeStyle=orthogonalEdgeStyle;rounded=0;orthogonalLoop=1;jettySize=auto;html=1;entryX=0.5;entryY=0;entryDx=0;entryDy=0;fillColor=#d80073;strokeColor=#A50040;" edge="1" parent="1" source="Xyg-lu1VKMeduts_Xm5k-69" target="Xyg-lu1VKMeduts_Xm5k-55">
          <mxGeometry relative="1" as="geometry">
            <Array as="points">
              <mxPoint x="1180" y="309.92" />
              <mxPoint x="1180" y="301.92" />
              <mxPoint x="950" y="301.92" />
            </Array>
          </mxGeometry>
        </mxCell>
        <mxCell id="Xyg-lu1VKMeduts_Xm5k-69" value="[GET]&lt;br&gt;&lt;b&gt;/session&lt;/b&gt;" style="html=1;whiteSpace=wrap;" vertex="1" parent="1">
          <mxGeometry x="1310" y="284.92" width="110" height="40" as="geometry" />
        </mxCell>
        <mxCell id="Xyg-lu1VKMeduts_Xm5k-79" style="edgeStyle=orthogonalEdgeStyle;rounded=0;orthogonalLoop=1;jettySize=auto;html=1;entryX=0.75;entryY=0;entryDx=0;entryDy=0;exitX=0;exitY=0.5;exitDx=0;exitDy=0;fillColor=#d80073;strokeColor=#A50040;" edge="1" parent="1" source="Xyg-lu1VKMeduts_Xm5k-70" target="Xyg-lu1VKMeduts_Xm5k-55">
          <mxGeometry relative="1" as="geometry">
            <Array as="points">
              <mxPoint x="1170" y="379.92" />
              <mxPoint x="1170" y="309.92" />
              <mxPoint x="995" y="309.92" />
            </Array>
          </mxGeometry>
        </mxCell>
        <mxCell id="Xyg-lu1VKMeduts_Xm5k-80" style="edgeStyle=orthogonalEdgeStyle;rounded=0;orthogonalLoop=1;jettySize=auto;html=1;entryX=0;entryY=0.5;entryDx=0;entryDy=0;" edge="1" parent="1" source="Xyg-lu1VKMeduts_Xm5k-70" target="Xyg-lu1VKMeduts_Xm5k-72">
          <mxGeometry relative="1" as="geometry" />
        </mxCell>
        <mxCell id="Xyg-lu1VKMeduts_Xm5k-70" value="[DELETE]&lt;br&gt;&lt;b&gt;/session&lt;/b&gt;" style="html=1;whiteSpace=wrap;" vertex="1" parent="1">
          <mxGeometry x="1310" y="354.92" width="110" height="40" as="geometry" />
        </mxCell>
        <mxCell id="Xyg-lu1VKMeduts_Xm5k-89" style="edgeStyle=orthogonalEdgeStyle;rounded=0;orthogonalLoop=1;jettySize=auto;html=1;entryX=0.5;entryY=0;entryDx=0;entryDy=0;fillColor=#d80073;strokeColor=#A50040;" edge="1" parent="1" source="Xyg-lu1VKMeduts_Xm5k-71" target="Xyg-lu1VKMeduts_Xm5k-5">
          <mxGeometry relative="1" as="geometry">
            <Array as="points">
              <mxPoint x="1560" y="179.92000000000002" />
              <mxPoint x="170" y="179.92000000000002" />
            </Array>
          </mxGeometry>
        </mxCell>
        <mxCell id="Xyg-lu1VKMeduts_Xm5k-71" value="SessionSchema" style="swimlane;fontStyle=1;align=center;verticalAlign=top;childLayout=stackLayout;horizontal=1;startSize=26;horizontalStack=0;resizeParent=1;resizeParentMax=0;resizeLast=0;collapsible=1;marginBottom=0;whiteSpace=wrap;html=1;" vertex="1" parent="1">
          <mxGeometry x="1480" y="302.92" width="160" height="52" as="geometry" />
        </mxCell>
        <mxCell id="Xyg-lu1VKMeduts_Xm5k-72" value="..." style="text;align=left;verticalAlign=top;spacingLeft=4;spacingRight=4;overflow=hidden;rotatable=0;points=[[0,0.5],[1,0.5]];portConstraint=eastwest;whiteSpace=wrap;html=1;fillColor=default;" vertex="1" parent="Xyg-lu1VKMeduts_Xm5k-71">
          <mxGeometry y="26" width="160" height="26" as="geometry" />
        </mxCell>
        <mxCell id="Xyg-lu1VKMeduts_Xm5k-83" style="edgeStyle=orthogonalEdgeStyle;rounded=0;orthogonalLoop=1;jettySize=auto;html=1;entryX=0.5;entryY=0;entryDx=0;entryDy=0;fillColor=#d80073;strokeColor=#A50040;" edge="1" parent="1" source="Xyg-lu1VKMeduts_Xm5k-81" target="Xyg-lu1VKMeduts_Xm5k-46">
          <mxGeometry relative="1" as="geometry">
            <Array as="points">
              <mxPoint x="1180" y="479.92" />
              <mxPoint x="1180" y="441.92" />
              <mxPoint x="950" y="441.92" />
            </Array>
          </mxGeometry>
        </mxCell>
        <mxCell id="Xyg-lu1VKMeduts_Xm5k-86" style="edgeStyle=orthogonalEdgeStyle;rounded=0;orthogonalLoop=1;jettySize=auto;html=1;exitX=1;exitY=0.5;exitDx=0;exitDy=0;entryX=1;entryY=0.25;entryDx=0;entryDy=0;fillColor=#d80073;strokeColor=#A50040;" edge="1" parent="1" source="Xyg-lu1VKMeduts_Xm5k-81" target="Xyg-lu1VKMeduts_Xm5k-29">
          <mxGeometry relative="1" as="geometry">
            <mxPoint x="610" y="799.92" as="targetPoint" />
            <Array as="points">
              <mxPoint x="1530" y="469.92" />
              <mxPoint x="1530" y="822.92" />
            </Array>
          </mxGeometry>
        </mxCell>
        <mxCell id="Xyg-lu1VKMeduts_Xm5k-81" value="[GET]&lt;br&gt;&lt;b&gt;/oauth/{provider}/auth&lt;/b&gt;" style="html=1;whiteSpace=wrap;" vertex="1" parent="1">
          <mxGeometry x="1310" y="449.92" width="190" height="40" as="geometry" />
        </mxCell>
        <mxCell id="Xyg-lu1VKMeduts_Xm5k-84" style="edgeStyle=orthogonalEdgeStyle;rounded=0;orthogonalLoop=1;jettySize=auto;html=1;entryX=0.75;entryY=0;entryDx=0;entryDy=0;fillColor=#d80073;strokeColor=#A50040;" edge="1" parent="1" source="Xyg-lu1VKMeduts_Xm5k-82" target="Xyg-lu1VKMeduts_Xm5k-46">
          <mxGeometry relative="1" as="geometry">
            <Array as="points">
              <mxPoint x="1170" y="539.92" />
              <mxPoint x="1170" y="449.92" />
              <mxPoint x="995" y="449.92" />
            </Array>
          </mxGeometry>
        </mxCell>
        <mxCell id="Xyg-lu1VKMeduts_Xm5k-87" style="edgeStyle=orthogonalEdgeStyle;rounded=0;orthogonalLoop=1;jettySize=auto;html=1;entryX=0.5;entryY=0;entryDx=0;entryDy=0;fillColor=#d80073;strokeColor=#A50040;" edge="1" parent="1" source="Xyg-lu1VKMeduts_Xm5k-82" target="Xyg-lu1VKMeduts_Xm5k-29">
          <mxGeometry relative="1" as="geometry">
            <Array as="points">
              <mxPoint x="1425" y="789.92" />
              <mxPoint x="565" y="789.92" />
            </Array>
          </mxGeometry>
        </mxCell>
        <mxCell id="Xyg-lu1VKMeduts_Xm5k-82" value="[GET]&lt;br&gt;&lt;b&gt;/oauth/{provider}/code&lt;/b&gt;" style="html=1;whiteSpace=wrap;" vertex="1" parent="1">
          <mxGeometry x="1310" y="514.92" width="190" height="40" as="geometry" />
        </mxCell>
      </root>
    </mxGraphModel>
  </diagram>
</mxfile>
